<svg width="63" height="29" viewBox="0 0 63 29" fill="none" xmlns="http://www.w3.org/2000/svg">
<path id="Hutly" d="M39.993 10.624H42.8207V19.806C42.8207 20.7968 43.6239 21.6 44.6147 21.6C45.6055 21.6 46.4087 20.7968 46.4087 19.806V2.36197C46.4087 1.37117 45.6055 0.567969 44.6147 0.567969C43.6239 0.567969 42.8207 1.37117 42.8207 2.36197V7.56797H39.993V5.06397C39.993 4.06544 39.1836 3.25597 38.185 3.25597C37.1865 3.25597 36.377 4.06544 36.377 5.06397V7.56797H35.245C34.4012 7.56797 33.717 8.25208 33.717 9.09597C33.717 9.93986 34.4012 10.624 35.245 10.624H36.377V19.792C36.377 20.7905 37.1865 21.6 38.185 21.6C39.1836 21.6 39.993 20.7905 39.993 19.792V10.624ZM53.5705 23.0886L53.57 23.0899C53.2802 23.8902 52.9342 24.3502 52.5088 24.614C52.0816 24.8789 51.5588 24.956 50.892 24.956H50.4581C49.5137 24.956 48.748 25.7216 48.748 26.6661C48.748 27.4418 49.273 28.1459 50.0594 28.2416C50.4803 28.2927 50.9247 28.32 51.396 28.32C52.5466 28.32 53.5002 28.0497 54.2984 27.4457C55.0949 26.8429 55.7269 25.9151 56.2488 24.6173L56.2488 24.6172L62.1323 9.93282C62.586 8.80042 61.7521 7.56797 60.5322 7.56797C59.8121 7.56797 59.1679 8.01557 58.9167 8.6904L55.6545 17.4545L52.5829 8.74747C52.3335 8.04066 51.6655 7.56797 50.916 7.56797C49.6745 7.56797 48.8198 8.81443 49.2673 9.97256L53.949 22.0883L53.5705 23.0886ZM2.05958 21.6C3.1045 21.6 3.95158 20.7529 3.95158 19.708V12.92H12.8236V19.708C12.8236 20.7529 13.6707 21.6 14.7156 21.6C15.7605 21.6 16.6076 20.7529 16.6076 19.708V2.82397C16.6076 1.77905 15.7605 0.931969 14.7156 0.931969C13.6707 0.931969 12.8236 1.77905 12.8236 2.82397V9.38797H3.95158V2.82397C3.95158 1.77905 3.1045 0.931969 2.05958 0.931969C1.01466 0.931969 0.167578 1.77904 0.167578 2.82397V19.708C0.167578 20.7529 1.01466 21.6 2.05958 21.6ZM30.7928 7.56797C29.7943 7.56797 28.9848 8.37744 28.9848 9.37597V14.92C28.9848 16.2257 28.7273 17.1713 28.22 17.7895C27.716 18.4037 26.9508 18.712 25.8928 18.712C24.9596 18.712 24.2576 18.4519 23.7856 17.8869C23.3104 17.3179 23.0528 16.4219 23.0528 15.116V9.37597C23.0528 8.37744 22.2434 7.56797 21.2448 7.56797C20.2463 7.56797 19.4368 8.37744 19.4368 9.37597V16.32C19.4368 18.0318 19.9109 19.444 20.7996 20.4294C21.6894 21.4162 22.9852 21.964 24.6048 21.964C26.3788 21.964 28.1093 21.1515 29.0206 19.9213L29.0385 20.0524C29.1594 20.939 29.9167 21.6 30.8115 21.6C31.7997 21.6 32.6008 20.7988 32.6008 19.8106V9.37597C32.6008 8.37744 31.7914 7.56797 30.7928 7.56797Z" fill="white" stroke="white" stroke-width="0.2"/>
</svg>
