<svg width="545" height="715" viewBox="0 0 545 715" fill="none" xmlns="http://www.w3.org/2000/svg">
<path d="M8.61138 673.542C4.57019 665.547 2.53717 656.295 1.51901 643.733C0.500383 631.165 0.5 615.329 0.5 594.175V223.521C0.5 189.65 0.508689 172.855 6.19131 158.655C11.216 146.1 19.3604 135.034 29.8543 126.504C41.7222 116.857 57.7558 111.855 90.0955 101.786L154.403 81.7625L154.407 81.7612L373.114 15.7192C394.046 9.39836 404.48 6.2484 418.396 3.85044C427.255 2.32383 446.835 0.579334 455.823 0.515967C469.945 0.416397 473.126 0.785916 479.481 1.52427L479.498 1.52621C489.385 2.67485 497.083 4.67834 503.868 8.1631C517.869 15.3546 529.254 26.8301 536.389 40.9455C540.43 48.9405 542.463 58.1929 543.481 70.7547C544.5 83.3222 544.5 99.1583 544.5 120.313V594.175C544.5 613.207 544.5 627.455 543.709 638.817C542.918 650.174 541.339 658.609 538.2 666.017C530.147 685.02 515.02 700.147 496.017 708.2C488.609 711.339 480.174 712.918 468.817 713.709C457.455 714.5 443.207 714.5 424.175 714.5H119.862C98.8763 714.5 83.1669 714.5 70.7001 713.473C58.2393 712.447 49.0622 710.397 41.1322 706.325C27.1307 699.133 15.7463 687.658 8.61138 673.542Z" fill="#F7F8F8" stroke="black"/>
</svg>
