<svg width="10" height="11" viewBox="0 0 10 11" fill="none" xmlns="http://www.w3.org/2000/svg">
<path id="&#194;&#174;" d="M4.87712 10.16C2.09693 10.16 0 8.06307 0 5.33C0 2.59693 2.12049 0.5 4.87712 0.5C7.63376 0.5 9.70712 2.57337 9.70712 5.33C9.70712 8.08664 7.63376 10.16 4.87712 10.16ZM4.87712 9.35893C7.16254 9.35893 8.85893 7.63898 8.85893 5.33C8.85893 3.02103 7.16254 1.30107 4.87712 1.30107C2.56815 1.30107 0.871756 3.02103 0.871756 5.33C0.871756 7.63898 2.56815 9.35893 4.87712 9.35893ZM3.84044 7.53295C3.84044 7.77368 3.64529 7.96883 3.40456 7.96883C3.16383 7.96883 2.96868 7.77368 2.96868 7.53295V2.96665C2.96868 2.73643 3.15531 2.5498 3.38553 2.5498H5.08917C6.26722 2.5498 7.06829 3.16239 7.06829 4.19907C7.06829 4.9059 6.66776 5.49493 5.93737 5.7541L6.80027 7.34456C6.95308 7.62621 6.74917 7.96883 6.42874 7.96883C6.2715 7.96883 6.12726 7.88155 6.0543 7.74227L5.13629 5.98971H3.84044V7.53295ZM6.12585 4.2462C6.12585 3.65717 5.72532 3.37444 5.06561 3.37444H3.84044V5.16507H5.06561C5.72532 5.16507 6.12585 4.83522 6.12585 4.2462Z" fill="white"/>
</svg>
